<svg width="48" height="48" viewBox="0 0 48 48" fill="none" xmlns="http://www.w3.org/2000/svg">
<path d="M24 38H12C10.4087 38 8.88258 37.3679 7.75736 36.2426C6.63214 35.1174 6 33.5913 6 32V16C6 14.4087 6.63214 12.8826 7.75736 11.7574C8.88258 10.6321 10.4087 10 12 10H36C37.5913 10 39.1174 10.6321 40.2426 11.7574C41.3679 12.8826 42 14.4087 42 16V25" stroke="#FF6B6B" stroke-width="4" stroke-linecap="round" stroke-linejoin="round"/>
<path d="M6 20H42" stroke="#FF6B6B" stroke-width="4" stroke-linecap="round" stroke-linejoin="round"/>
<path d="M14 30H14.02" stroke="#FF6B6B" stroke-width="4" stroke-linecap="round" stroke-linejoin="round"/>
<path d="M22 30H26" stroke="#FF6B6B" stroke-width="4" stroke-linecap="round" stroke-linejoin="round"/>
<path d="M44 38H32" stroke="#FF6B6B" stroke-width="4" stroke-linecap="round" stroke-linejoin="round"/>
<path d="M38 44L44 38L38 32" stroke="#FF6B6B" stroke-width="4" stroke-linecap="round" stroke-linejoin="round"/>
</svg>
