<svg width="207" height="67" viewBox="0 0 207 67" fill="none" xmlns="http://www.w3.org/2000/svg">
<path d="M6 51.5H42" stroke="#1C0C55" stroke-width="4" stroke-linecap="round" stroke-linejoin="round"/>
<path d="M6 29.5H42" stroke="#1C0C55" stroke-width="4" stroke-linecap="round" stroke-linejoin="round"/>
<path d="M10 21.5L24 15.5L38 21.5" stroke="#1C0C55" stroke-width="4" stroke-linecap="round" stroke-linejoin="round"/>
<path d="M8 29.5V51.5" stroke="#1C0C55" stroke-width="4" stroke-linecap="round" stroke-linejoin="round"/>
<path d="M40 29.5V51.5" stroke="#1C0C55" stroke-width="4" stroke-linecap="round" stroke-linejoin="round"/>
<path d="M16 37.5V43.5" stroke="#1C0C55" stroke-width="4" stroke-linecap="round" stroke-linejoin="round"/>
<path d="M24 37.5V43.5" stroke="#1C0C55" stroke-width="4" stroke-linecap="round" stroke-linejoin="round"/>
<path d="M32 37.5V43.5" stroke="#1C0C55" stroke-width="4" stroke-linecap="round" stroke-linejoin="round"/>
<path d="M77.104 33.768C77.104 35.0693 76.8053 36.264 76.208 37.352C75.6107 38.4187 74.6933 39.2827 73.456 39.944C72.2187 40.6053 70.6827 40.936 68.848 40.936H65.456V49H59.984V26.536H68.848C70.64 26.536 72.1547 26.8453 73.392 27.464C74.6293 28.0827 75.5573 28.936 76.176 30.024C76.7947 31.112 77.104 32.36 77.104 33.768ZM68.432 36.584C69.4773 36.584 70.256 36.3387 70.768 35.848C71.28 35.3573 71.536 34.664 71.536 33.768C71.536 32.872 71.28 32.1787 70.768 31.688C70.256 31.1973 69.4773 30.952 68.432 30.952H65.456V36.584H68.432ZM78.8648 40.04C78.8648 38.2053 79.2061 36.5947 79.8888 35.208C80.5928 33.8213 81.5421 32.7547 82.7368 32.008C83.9314 31.2613 85.2648 30.888 86.7368 30.888C87.9954 30.888 89.0941 31.144 90.0328 31.656C90.9928 32.168 91.7288 32.84 92.2408 33.672V31.144H97.7128V49H92.2408V46.472C91.7074 47.304 90.9608 47.976 90.0008 48.488C89.0621 49 87.9634 49.256 86.7048 49.256C85.2541 49.256 83.9314 48.8827 82.7368 48.136C81.5421 47.368 80.5928 46.2907 79.8888 44.904C79.2061 43.496 78.8648 41.8747 78.8648 40.04ZM92.2408 40.072C92.2408 38.7067 91.8568 37.6293 91.0888 36.84C90.3421 36.0507 89.4248 35.656 88.3368 35.656C87.2488 35.656 86.3208 36.0507 85.5528 36.84C84.8061 37.608 84.4328 38.6747 84.4328 40.04C84.4328 41.4053 84.8061 42.4933 85.5528 43.304C86.3208 44.0933 87.2488 44.488 88.3368 44.488C89.4248 44.488 90.3421 44.0933 91.0888 43.304C91.8568 42.5147 92.2408 41.4373 92.2408 40.072ZM119.912 31.144L108.712 57.48H102.824L106.92 48.392L99.6555 31.144H105.768L109.896 42.312L113.992 31.144H119.912ZM147.33 26.536V49H141.858V35.528L136.834 49H132.418L127.362 35.496V49H121.89V26.536H128.354L134.658 42.088L140.898 26.536H147.33ZM168.097 39.784C168.097 40.296 168.065 40.8293 168.001 41.384H155.617C155.703 42.4933 156.055 43.3467 156.673 43.944C157.313 44.52 158.092 44.808 159.009 44.808C160.375 44.808 161.324 44.232 161.857 43.08H167.681C167.383 44.2533 166.839 45.3093 166.049 46.248C165.281 47.1867 164.311 47.9227 163.137 48.456C161.964 48.9893 160.652 49.256 159.201 49.256C157.452 49.256 155.895 48.8827 154.529 48.136C153.164 47.3893 152.097 46.3227 151.329 44.936C150.561 43.5493 150.177 41.928 150.177 40.072C150.177 38.216 150.551 36.5947 151.297 35.208C152.065 33.8213 153.132 32.7547 154.497 32.008C155.863 31.2613 157.431 30.888 159.201 30.888C160.929 30.888 162.465 31.2507 163.809 31.976C165.153 32.7013 166.199 33.736 166.945 35.08C167.713 36.424 168.097 37.992 168.097 39.784ZM162.497 38.344C162.497 37.4053 162.177 36.6587 161.537 36.104C160.897 35.5493 160.097 35.272 159.137 35.272C158.22 35.272 157.441 35.5387 156.801 36.072C156.183 36.6053 155.799 37.3627 155.649 38.344H162.497Z" fill="#1C0C55"/>
</svg>
