<svg width="24" height="24" viewBox="0 0 24 24" fill="none" xmlns="http://www.w3.org/2000/svg">
<g clip-path="url(#clip0_99_566)">
<path d="M11.172 2C11.9676 2.00017 12.7305 2.31635 13.293 2.879L21.003 10.589C21.6423 11.2285 22.0015 12.0957 22.0015 13C22.0015 13.9043 21.6423 14.7715 21.003 15.411L15.411 21.003C14.7715 21.6424 13.9042 22.0015 13 22.0015C12.0957 22.0015 11.2284 21.6424 10.589 21.003L2.87897 13.293C2.31632 12.7305 2.00014 11.9676 1.99997 11.172V6C1.99997 4.93913 2.4214 3.92172 3.17154 3.17157C3.92169 2.42143 4.9391 2 5.99997 2H11.172ZM7.49997 5.5C6.99539 5.49984 6.5094 5.69041 6.13942 6.0335C5.76944 6.37659 5.54281 6.84684 5.50497 7.35L5.49997 7.5C5.49997 7.89556 5.61727 8.28224 5.83703 8.61114C6.05679 8.94004 6.36915 9.19638 6.7346 9.34776C7.10005 9.49913 7.50219 9.53874 7.89015 9.46157C8.27811 9.3844 8.63448 9.19392 8.91418 8.91421C9.19389 8.63451 9.38437 8.27814 9.46154 7.89018C9.53871 7.50222 9.4991 7.10009 9.34773 6.73463C9.19635 6.36918 8.94001 6.05682 8.61111 5.83706C8.28221 5.6173 7.89553 5.5 7.49997 5.5Z" fill="#FFA15E"/>
</g>
<defs>
<clipPath id="clip0_99_566">
<rect width="24" height="24" fill="white"/>
</clipPath>
</defs>
</svg>
