<svg width="36" height="35" viewBox="0 0 36 35" fill="none" xmlns="http://www.w3.org/2000/svg">
<path d="M35.25 17.5C35.25 26.731 27.547 34.25 18 34.25C8.45303 34.25 0.75 26.731 0.75 17.5C0.75 8.26901 8.45303 0.75 18 0.75C27.547 0.75 35.25 8.26901 35.25 17.5Z" fill="white" stroke="black" stroke-width="1.5"/>
<path d="M23.7143 9.33333C23.7143 12.2789 21.1558 14.6667 18 14.6667C14.8441 14.6667 12.2857 12.2789 12.2857 9.33333C12.2857 6.38781 14.8441 4 18 4C21.1558 4 23.7143 6.38781 23.7143 9.33333Z" stroke="black" stroke-width="2" stroke-linecap="round" stroke-linejoin="round"/>
<path d="M18 18.6667C12.4772 18.6667 8 22.8453 8 28H28C28 22.8453 23.5229 18.6667 18 18.6667Z" stroke="black" stroke-width="2" stroke-linecap="round" stroke-linejoin="round"/>
</svg>
