<svg width="69" height="23" viewBox="0 0 69 23" fill="none" xmlns="http://www.w3.org/2000/svg">
<path d="M26.1916 0.39782L17.341 22.1871H11.4969L7.00385 4.79854C6.731 3.72752 6.49639 3.33515 5.68029 2.88392C4.34823 2.14859 2.15047 1.4594 0.217687 1.03142L0.345728 0.398183L9.75295 0.398183C10.9521 0.398183 12.034 1.21199 12.3131 2.6198L14.7028 15.228L20.3839 0.39782L26.1916 0.39782ZM49.1619 15.0728C49.1573 9.32206 41.3325 9.00526 41.3738 6.43632C41.3867 5.65449 42.1128 4.82325 43.71 4.61108C44.5016 4.50535 46.6838 4.4247 49.1651 5.58619L50.1135 0.965667C48.7809 0.473751 47.067 0 44.9375 0C39.4729 0 35.6417 2.96167 35.63 7.20254C35.61 10.3393 38.3988 12.0897 40.4985 13.132C42.6585 14.1994 43.3849 14.8854 43.3814 15.8401C43.3732 17.3017 41.673 17.9469 40.0814 17.9724C37.3028 18.016 35.6863 17.2058 34.398 16.5965L33.4193 21.37C34.714 21.9742 37.1009 22.5013 39.573 22.5279C45.3811 22.5275 49.1662 19.6029 49.1619 15.0728ZM63.6266 22.1871H68.7398L64.1701 0.39782L59.4506 0.39782C58.3894 0.39782 57.4974 1.02779 57.1058 1.99636L48.908 22.1871H54.7133L55.8502 18.9322H62.9433L63.6266 22.1871ZM57.4201 14.4665L60.2901 6.28555L62.0049 14.4665L57.4201 14.4665ZM34.0911 0.39782L29.626 22.1871L24.0977 22.1871L28.5645 0.39782L34.0911 0.39782Z" fill="#F2F6FF"/>
</svg>
