<svg width="25" height="25" viewBox="0 0 25 25" fill="none" xmlns="http://www.w3.org/2000/svg">
<path d="M12.5013 19.2725H6.50131C5.70566 19.2725 4.9426 18.9564 4.37999 18.3938C3.81738 17.8312 3.50131 17.0681 3.50131 16.2725V8.27246C3.50131 7.47681 3.81738 6.71375 4.37999 6.15114C4.9426 5.58853 5.70566 5.27246 6.50131 5.27246H18.5013C19.297 5.27246 20.06 5.58853 20.6226 6.15114C21.1852 6.71375 21.5013 7.47681 21.5013 8.27246V12.7725" stroke="#FF6B6B" stroke-width="2" stroke-linecap="round" stroke-linejoin="round"/>
<path d="M3.50131 10.2725H21.5013" stroke="#FF6B6B" stroke-width="2" stroke-linecap="round" stroke-linejoin="round"/>
<path d="M7.50131 15.2725H7.51131" stroke="#FF6B6B" stroke-width="2" stroke-linecap="round" stroke-linejoin="round"/>
<path d="M11.5013 15.2725H13.5013" stroke="#FF6B6B" stroke-width="2" stroke-linecap="round" stroke-linejoin="round"/>
<path d="M22.5013 19.2725H16.5013" stroke="#FF6B6B" stroke-width="2" stroke-linecap="round" stroke-linejoin="round"/>
<path d="M19.5013 22.2725L22.5013 19.2725L19.5013 16.2725" stroke="#FF6B6B" stroke-width="2" stroke-linecap="round" stroke-linejoin="round"/>
</svg>
